<svg width="128.329mm" height="111.997mm" viewBox="0 0 128.329 111.997" xmlns="http://www.w3.org/2000/svg"><g id="svgGroup" stroke-linecap="round" fill-rule="evenodd" font-size="9pt" stroke="#000" stroke-width="0.25mm" fill="none" style="stroke:#000;stroke-width:0.25mm;fill:none"><rect width="100%" height="100%" fill="#e6e6e6"/><path d="M 103.935 109.642 L 17.246 109.642 A 3 3 0 0 1 14.291 107.164 L 0.046 26.448 A 3 3 0 0 1 1.684 23.231 L 48.644 0.304 A 3 3 0 0 1 49.96 0 L 104.084 0 A 3 3 0 0 1 106.995 2.274 L 128.239 87.481 A 3 3 0 0 1 127.927 89.707 L 119.093 105.011 A 3 3 0 0 1 117.221 106.422 L 104.66 109.553 A 3 3 0 0 1 103.935 109.642 Z M 55.333 109.448 L 23.973 109.448 A 2 2 0 0 1 22.032 107.932 L 1.605 26.003 A 2 2 0 0 1 3.062 23.578 L 96.21 0.354 A 2 2 0 0 1 98.634 1.811 L 121.017 91.582 A 2 2 0 0 1 120.872 92.946 L 118.871 97.032 A 2 2 0 0 1 117.559 98.092 L 95.124 103.686 A 2 2 0 0 1 92.641 101.745 L 92.641 96.425 A 2 2 0 0 0 91.114 94.482 L 88.485 93.841 A 2 2 0 0 0 88.011 93.784 L 59.333 93.784 A 2 2 0 0 0 57.333 95.784 L 57.333 107.448 A 2 2 0 0 1 55.333 109.448 Z M 31.66 85.945 L 29.195 71.966 L 49.221 70.389 L 44.654 12.369 L 24.517 13.954 L 28.991 70.806 L 21.554 28.629 L 1.661 32.137 L 11.767 89.453 L 31.66 85.945 Z M 48.41 59.596 L 67.41 59.596 L 67.41 69.596 L 86.41 69.596 L 86.41 71.596 L 106.61 71.596 L 106.61 13.396 L 87.61 13.396 L 87.61 11.396 L 68.61 11.396 L 68.61 1.396 L 48.41 1.396 L 48.41 59.596 Z M 61.41 91.596 L 81.248 91.596 L 100.777 96.465 L 100.837 96.228 L 118.205 106.256 L 128.305 88.762 L 110.811 78.662 L 100.964 95.717 L 105.664 76.865 L 86.064 71.979 L 81.61 89.844 L 81.61 71.396 L 61.41 71.396 L 61.41 91.596 Z M 68.01 58.996 L 49.01 58.996 L 49.01 1.996 L 68.01 1.996 L 68.01 68.996 L 87.01 68.996 M 68.01 11.996 L 87.01 11.996 L 87.01 70.996 L 106.01 70.996 L 106.01 13.996 L 87.01 13.996 M 29.634 71.329 L 48.575 69.838 L 44.103 13.014 L 25.162 14.505 L 29.634 71.329 Z M 30.965 85.459 L 21.067 29.325 L 2.356 32.624 L 12.254 88.758 L 30.965 85.459 Z M 40.997 109.586 L 35.917 109.586 L 35.917 76.566 L 53.697 76.566 L 53.697 109.586 L 48.617 109.586 L 48.617 111.11 L 40.997 111.11 L 40.997 109.586 Z M 59.317 109.69 L 89.317 109.69 L 89.317 95.69 L 59.317 95.69 L 59.317 109.69 Z M 62.01 90.996 L 81.01 90.996 L 81.01 71.996 L 62.01 71.996 L 62.01 90.996 Z M 81.905 91.142 L 100.34 95.738 L 104.937 77.302 L 86.501 72.706 L 81.905 91.142 Z M 111.03 79.482 L 101.53 95.936 L 117.985 105.436 L 127.485 88.982 L 111.03 79.482 Z M 95.51 45.996 L 94.01 44.496 L 94.01 43.496 L 89.01 43.496 L 89.01 44.496 L 87.51 44.496 L 87.51 47.496 L 89.01 47.496 L 89.01 48.496 L 92.51 48.496 L 94.01 49.996 L 94.01 50.996 L 99.01 50.996 L 99.01 49.996 L 100.51 48.496 L 104.01 48.496 L 104.01 47.496 L 105.51 47.496 L 105.51 44.496 L 104.01 44.496 L 104.01 43.496 L 99.01 43.496 L 99.01 44.496 L 97.51 45.996 M 16.982 40.707 L 15.765 42.445 L 14.78 42.618 L 15.648 47.542 L 16.633 47.369 L 16.894 48.846 L 19.848 48.325 L 19.588 46.848 L 20.573 46.674 L 19.965 43.227 L 21.181 41.49 L 22.166 41.316 L 21.298 36.392 L 20.313 36.565 L 18.576 35.349 L 17.968 31.902 L 16.983 32.076 L 16.723 30.598 L 13.768 31.119 L 14.029 32.597 L 13.044 32.77 L 13.912 37.694 L 14.897 37.521 L 16.634 38.737 M 91.604 87.376 L 90.511 85.558 L 90.753 84.588 L 85.902 83.378 L 85.66 84.348 L 84.204 83.985 L 83.479 86.896 L 84.934 87.259 L 84.692 88.229 L 88.088 89.076 L 89.181 90.894 L 88.939 91.865 L 93.79 93.074 L 94.032 92.104 L 95.85 91.011 L 99.246 91.858 L 99.488 90.888 L 100.944 91.251 L 101.67 88.34 L 100.214 87.977 L 100.456 87.007 L 95.605 85.797 L 95.363 86.767 L 93.544 87.86 M 23.58 78.13 L 22.364 79.867 L 21.379 80.041 L 22.247 84.965 L 23.232 84.791 L 23.492 86.269 L 26.447 85.748 L 26.186 84.27 L 27.171 84.097 L 26.563 80.65 L 27.78 78.912 L 28.765 78.739 L 27.897 73.815 L 26.912 73.988 L 25.174 72.771 L 24.566 69.325 L 23.582 69.498 L 23.321 68.021 L 20.367 68.542 L 20.627 70.019 L 19.642 70.193 L 20.511 75.117 L 21.495 74.943 L 23.233 76.16 M 76.51 43.996 L 75.01 42.496 L 75.01 41.496 L 70.01 41.496 L 70.01 42.496 L 68.51 42.496 L 68.51 45.496 L 70.01 45.496 L 70.01 46.496 L 73.51 46.496 L 75.01 47.996 L 75.01 48.996 L 80.01 48.996 L 80.01 47.996 L 81.51 46.496 L 85.01 46.496 L 85.01 45.496 L 86.51 45.496 L 86.51 42.496 L 85.01 42.496 L 85.01 41.496 L 80.01 41.496 L 80.01 42.496 L 78.51 43.996 M 34.655 26.798 L 33.042 25.42 L 32.964 24.423 L 27.979 24.816 L 28.058 25.812 L 26.562 25.93 L 26.798 28.921 L 28.293 28.803 L 28.372 29.8 L 31.861 29.526 L 33.474 30.903 L 33.552 31.9 L 38.537 31.508 L 38.459 30.511 L 39.836 28.898 L 43.325 28.623 L 43.247 27.626 L 44.742 27.509 L 44.507 24.518 L 43.012 24.636 L 42.933 23.639 L 37.949 24.031 L 38.027 25.028 L 36.649 26.641 M 36.146 45.739 L 34.533 44.362 L 34.455 43.365 L 29.47 43.757 L 29.549 44.754 L 28.053 44.872 L 28.289 47.862 L 29.784 47.745 L 29.862 48.742 L 33.352 48.467 L 34.965 49.845 L 35.043 50.842 L 40.028 50.449 L 39.949 49.452 L 41.327 47.839 L 44.816 47.565 L 44.738 46.568 L 46.233 46.45 L 45.998 43.459 L 44.502 43.577 L 44.424 42.58 L 39.439 42.972 L 39.518 43.969 L 38.14 45.582 M 57.51 33.996 L 56.01 32.496 L 56.01 31.496 L 51.01 31.496 L 51.01 32.496 L 49.51 32.496 L 49.51 35.496 L 51.01 35.496 L 51.01 36.496 L 54.51 36.496 L 56.01 37.996 L 56.01 38.996 L 61.01 38.996 L 61.01 37.996 L 62.51 36.496 L 66.01 36.496 L 66.01 35.496 L 67.51 35.496 L 67.51 32.496 L 66.01 32.496 L 66.01 31.496 L 61.01 31.496 L 61.01 32.496 L 59.51 33.996 M 57.51 52.996 L 56.01 51.496 L 56.01 50.496 L 51.01 50.496 L 51.01 51.496 L 49.51 51.496 L 49.51 54.496 L 51.01 54.496 L 51.01 55.496 L 54.51 55.496 L 56.01 56.996 L 56.01 57.996 L 61.01 57.996 L 61.01 56.996 L 62.51 55.496 L 66.01 55.496 L 66.01 54.496 L 67.51 54.496 L 67.51 51.496 L 66.01 51.496 L 66.01 50.496 L 61.01 50.496 L 61.01 51.496 L 59.51 52.996 M 57.51 14.996 L 56.01 13.496 L 56.01 12.496 L 51.01 12.496 L 51.01 13.496 L 49.51 13.496 L 49.51 16.496 L 51.01 16.496 L 51.01 17.496 L 54.51 17.496 L 56.01 18.996 L 56.01 19.996 L 61.01 19.996 L 61.01 18.996 L 62.51 17.496 L 66.01 17.496 L 66.01 16.496 L 67.51 16.496 L 67.51 13.496 L 66.01 13.496 L 66.01 12.496 L 61.01 12.496 L 61.01 13.496 L 59.51 14.996 M 20.281 59.418 L 19.064 61.156 L 18.08 61.33 L 18.948 66.254 L 19.933 66.08 L 20.193 67.557 L 23.147 67.036 L 22.887 65.559 L 23.872 65.385 L 23.264 61.939 L 24.481 60.201 L 25.466 60.027 L 24.597 55.103 L 23.613 55.277 L 21.875 54.06 L 21.267 50.613 L 20.282 50.787 L 20.022 49.31 L 17.067 49.831 L 17.328 51.308 L 16.343 51.482 L 17.211 56.406 L 18.196 56.232 L 19.934 57.449 M 70.51 84.996 L 69.01 83.496 L 69.01 82.496 L 64.01 82.496 L 64.01 83.496 L 62.51 83.496 L 62.51 86.496 L 64.01 86.496 L 64.01 87.496 L 67.51 87.496 L 69.01 88.996 L 69.01 89.996 L 74.01 89.996 L 74.01 88.996 L 75.51 87.496 L 79.01 87.496 L 79.01 86.496 L 80.51 86.496 L 80.51 83.496 L 79.01 83.496 L 79.01 82.496 L 74.01 82.496 L 74.01 83.496 L 72.51 84.996 M 76.51 24.996 L 75.01 23.496 L 75.01 22.496 L 70.01 22.496 L 70.01 23.496 L 68.51 23.496 L 68.51 26.496 L 70.01 26.496 L 70.01 27.496 L 73.51 27.496 L 75.01 28.996 L 75.01 29.996 L 80.01 29.996 L 80.01 28.996 L 81.51 27.496 L 85.01 27.496 L 85.01 26.496 L 86.51 26.496 L 86.51 23.496 L 85.01 23.496 L 85.01 22.496 L 80.01 22.496 L 80.01 23.496 L 78.51 24.996 M 93.01 22.496 L 94.51 20.996 L 95.51 20.996 L 95.51 15.996 L 94.51 15.996 L 94.51 14.496 L 91.51 14.496 L 91.51 15.996 L 90.51 15.996 L 90.51 19.496 L 89.01 20.996 L 88.01 20.996 L 88.01 25.996 L 89.01 25.996 L 90.51 27.496 L 90.51 30.996 L 91.51 30.996 L 91.51 32.496 L 94.51 32.496 L 94.51 30.996 L 95.51 30.996 L 95.51 25.996 L 94.51 25.996 L 93.01 24.496 M 76.51 62.996 L 75.01 61.496 L 75.01 60.496 L 70.01 60.496 L 70.01 61.496 L 68.51 61.496 L 68.51 64.496 L 70.01 64.496 L 70.01 65.496 L 73.51 65.496 L 75.01 66.996 L 75.01 67.996 L 80.01 67.996 L 80.01 66.996 L 81.51 65.496 L 85.01 65.496 L 85.01 64.496 L 86.51 64.496 L 86.51 61.496 L 85.01 61.496 L 85.01 60.496 L 80.01 60.496 L 80.01 61.496 L 78.51 62.996 M 37.637 64.681 L 36.024 63.303 L 35.945 62.306 L 30.961 62.698 L 31.039 63.695 L 29.544 63.813 L 29.779 66.804 L 31.275 66.686 L 31.353 67.683 L 34.842 67.408 L 36.455 68.786 L 36.534 69.783 L 41.518 69.391 L 41.44 68.394 L 42.818 66.781 L 46.307 66.506 L 46.228 65.509 L 47.724 65.392 L 47.488 62.401 L 45.993 62.518 L 45.915 61.522 L 40.93 61.914 L 41.008 62.911 L 39.631 64.524 M 95.51 64.996 L 94.01 63.496 L 94.01 62.496 L 89.01 62.496 L 89.01 63.496 L 87.51 63.496 L 87.51 66.496 L 89.01 66.496 L 89.01 67.496 L 92.51 67.496 L 94.01 68.996 L 94.01 69.996 L 99.01 69.996 L 99.01 68.996 L 100.51 67.496 L 104.01 67.496 L 104.01 66.496 L 105.51 66.496 L 105.51 63.496 L 104.01 63.496 L 104.01 62.496 L 99.01 62.496 L 99.01 63.496 L 97.51 64.996 M 111.977 89.843 L 114.026 89.294 L 114.892 89.794 L 117.392 85.464 L 116.526 84.964 L 117.276 83.665 L 114.678 82.165 L 113.928 83.464 L 113.062 82.964 L 111.312 85.995 L 109.263 86.544 L 108.397 86.044 L 105.897 90.374 L 106.763 90.874 L 107.312 92.923 L 105.562 95.954 L 106.428 96.454 L 105.678 97.753 L 108.276 99.253 L 109.026 97.954 L 109.892 98.454 L 112.392 94.124 L 111.526 93.624 L 110.977 91.575 M 51.838 69.759 L 51.838 62.159 L 52.538 62.159 L 52.538 63.759 L 59.038 63.759 L 59.038 62.159 L 59.738 62.159 L 59.738 69.759 L 51.838 69.759 Z M 32.232 106.497 L 32.232 109.497 L 30.232 109.497 L 30.232 111.997 L 26.232 111.997 L 26.232 109.497 L 24.232 109.497 L 24.232 106.497 L 25.232 106.497 L 25.232 105.497 L 31.232 105.497 L 31.232 106.497 L 32.232 106.497 Z M 60.071 88.005 L 60.071 80.005 L 56.571 80.005 L 56.571 88.005 L 60.071 88.005 Z M 93.596 93.026 L 93.838 92.056 L 95.294 92.419 L 96.019 89.508 L 94.564 89.145 L 94.806 88.174 L 90.342 87.062 L 90.1 88.032 L 88.645 87.669 L 87.919 90.58 L 89.375 90.943 L 89.133 91.913 M 38.338 31.524 L 38.259 30.527 L 39.755 30.409 L 39.519 27.418 L 38.024 27.536 L 37.945 26.539 L 33.359 26.9 L 33.438 27.897 L 31.943 28.014 L 32.178 31.005 L 33.673 30.888 L 33.752 31.884 M 41.319 69.406 L 41.241 68.409 L 42.736 68.292 L 42.501 65.301 L 41.005 65.419 L 40.927 64.422 L 36.341 64.783 L 36.419 65.78 L 34.924 65.897 L 35.159 68.888 L 36.655 68.77 L 36.733 69.767 M 79.81 48.996 L 79.81 47.996 L 81.31 47.996 L 81.31 44.996 L 79.81 44.996 L 79.81 43.996 L 75.21 43.996 L 75.21 44.996 L 73.71 44.996 L 73.71 47.996 L 75.21 47.996 L 75.21 48.996 M 98.81 50.996 L 98.81 49.996 L 100.31 49.996 L 100.31 46.996 L 98.81 46.996 L 98.81 45.996 L 94.21 45.996 L 94.21 46.996 L 92.71 46.996 L 92.71 49.996 L 94.21 49.996 L 94.21 50.996 M 21.333 36.589 L 20.348 36.762 L 20.087 35.285 L 17.133 35.806 L 17.394 37.283 L 16.409 37.457 L 17.208 41.987 L 18.192 41.814 L 18.453 43.291 L 21.407 42.77 L 21.147 41.293 L 22.132 41.119 M 39.828 50.465 L 39.75 49.468 L 41.245 49.35 L 41.01 46.36 L 39.515 46.477 L 39.436 45.48 L 34.85 45.841 L 34.929 46.838 L 33.433 46.956 L 33.669 49.947 L 35.164 49.829 L 35.243 50.826 M 88.01 25.796 L 89.01 25.796 L 89.01 27.296 L 92.01 27.296 L 92.01 25.796 L 93.01 25.796 L 93.01 21.196 L 92.01 21.196 L 92.01 19.696 L 89.01 19.696 L 89.01 21.196 L 88.01 21.196 M 27.931 74.011 L 26.947 74.185 L 26.686 72.708 L 23.732 73.229 L 23.992 74.706 L 23.007 74.88 L 23.806 79.41 L 24.791 79.236 L 25.051 80.713 L 28.006 80.192 L 27.745 78.715 L 28.73 78.542 M 105.997 90.201 L 106.863 90.701 L 106.113 92 L 108.711 93.5 L 109.461 92.201 L 110.327 92.701 L 112.627 88.717 L 111.761 88.217 L 112.511 86.918 L 109.913 85.418 L 109.163 86.717 L 108.297 86.217 M 24.632 55.3 L 23.647 55.474 L 23.387 53.997 L 20.432 54.518 L 20.693 55.995 L 19.708 56.168 L 20.507 60.699 L 21.492 60.525 L 21.752 62.002 L 24.707 61.481 L 24.446 60.004 L 25.431 59.83 M 60.81 57.996 L 60.81 56.996 L 62.31 56.996 L 62.31 53.996 L 60.81 53.996 L 60.81 52.996 L 56.21 52.996 L 56.21 53.996 L 54.71 53.996 L 54.71 56.996 L 56.21 56.996 L 56.21 57.996 M 73.81 89.996 L 73.81 88.996 L 75.31 88.996 L 75.31 85.996 L 73.81 85.996 L 73.81 84.996 L 69.21 84.996 L 69.21 85.996 L 67.71 85.996 L 67.71 88.996 L 69.21 88.996 L 69.21 89.996 M 60.81 38.996 L 60.81 37.996 L 62.31 37.996 L 62.31 34.996 L 60.81 34.996 L 60.81 33.996 L 56.21 33.996 L 56.21 34.996 L 54.71 34.996 L 54.71 37.996 L 56.21 37.996 L 56.21 38.996 M 79.81 67.996 L 79.81 66.996 L 81.31 66.996 L 81.31 63.996 L 79.81 63.996 L 79.81 62.996 L 75.21 62.996 L 75.21 63.996 L 73.71 63.996 L 73.71 66.996 L 75.21 66.996 L 75.21 67.996 M 98.81 69.996 L 98.81 68.996 L 100.31 68.996 L 100.31 65.996 L 98.81 65.996 L 98.81 64.996 L 94.21 64.996 L 94.21 65.996 L 92.71 65.996 L 92.71 68.996 L 94.21 68.996 L 94.21 69.996 M 79.81 29.996 L 79.81 28.996 L 81.31 28.996 L 81.31 25.996 L 79.81 25.996 L 79.81 24.996 L 75.21 24.996 L 75.21 25.996 L 73.71 25.996 L 73.71 28.996 L 75.21 28.996 L 75.21 29.996 M 60.81 19.996 L 60.81 18.996 L 62.31 18.996 L 62.31 15.996 L 60.81 15.996 L 60.81 14.996 L 56.21 14.996 L 56.21 15.996 L 54.71 15.996 L 54.71 18.996 L 56.21 18.996 L 56.21 19.996 M 5.364 26.612 m -2.7 0 a 2.7 2.7 0 0 1 5.4 0 a 2.7 2.7 0 0 1 -5.4 0 z M 94.509 5.931 m -2.7 0 a 2.7 2.7 0 0 1 5.4 0 a 2.7 2.7 0 0 1 -5.4 0 z M 112.899 73.489 m -2.7 0 a 2.7 2.7 0 0 1 5.4 0 a 2.7 2.7 0 0 1 -5.4 0 z M 96.268 99.794 m -2.7 0 a 2.7 2.7 0 0 1 5.4 0 a 2.7 2.7 0 0 1 -5.4 0 z M 23.391 92.714 m -2.7 0 a 2.7 2.7 0 0 1 5.4 0 a 2.7 2.7 0 0 1 -5.4 0 z M 8.955 70.047 27.666 66.747 M 5.655 51.335 24.367 48.036 M 28.143 52.388 47.085 50.897 M 26.652 33.446 45.594 31.956 M 49.01 39.996 68.01 39.996 M 49.01 20.996 68.01 20.996 M 68.01 49.996 87.01 49.996 M 68.01 30.996 87.01 30.996 M 87.01 51.996 106.01 51.996 M 87.01 32.996 106.01 32.996" vector-effect="non-scaling-stroke"/></g></svg>