<svg width="128.329mm" height="109.642mm" viewBox="0 0 128.329 109.642" xmlns="http://www.w3.org/2000/svg"><g id="svgGroup" stroke-linecap="round" fill-rule="evenodd" font-size="9pt" stroke="#000" stroke-width="0.25mm" fill="none" style="stroke:#000;stroke-width:0.25mm;fill:none"><rect width="100%" height="100%" fill="#e6e6e6"/><path d="M 103.935 109.642 L 17.246 109.642 A 3 3 0 0 1 14.291 107.164 L 0.046 26.448 A 3 3 0 0 1 1.684 23.231 L 48.644 0.304 A 3 3 0 0 1 49.96 0 L 104.084 0 A 3 3 0 0 1 106.995 2.274 L 128.239 87.481 A 3 3 0 0 1 127.927 89.707 L 119.093 105.011 A 3 3 0 0 1 117.221 106.422 L 104.66 109.553 A 3 3 0 0 1 103.935 109.642 Z M 71.767 109.448 L 23.973 109.448 A 2 2 0 0 1 22.032 107.932 L 1.605 26.003 A 2 2 0 0 1 3.062 23.578 L 96.21 0.354 A 2 2 0 0 1 98.634 1.811 L 121.017 91.582 A 2 2 0 0 1 120.872 92.946 L 118.871 97.032 A 2 2 0 0 1 117.559 98.092 L 72.251 109.389 A 2 2 0 0 1 71.767 109.448 Z M 68.01 58.996 L 49.01 58.996 L 49.01 1.996 L 68.01 1.996 L 68.01 68.996 L 87.01 68.996 M 68.01 11.996 L 87.01 11.996 L 87.01 70.996 L 106.01 70.996 L 106.01 13.996 L 87.01 13.996 M 29.634 71.329 L 48.575 69.838 L 44.103 13.014 L 25.162 14.505 L 29.634 71.329 Z M 12.254 88.758 L 2.356 32.624 L 21.067 29.325 L 30.965 85.459 L 12.254 88.758 Z M 62.01 90.996 L 81.01 90.996 L 81.01 71.996 L 62.01 71.996 L 62.01 90.996 Z M 81.905 91.142 L 100.34 95.738 L 104.937 77.302 L 86.501 72.706 L 81.905 91.142 Z M 117.985 105.436 L 127.485 88.982 L 111.03 79.482 L 101.53 95.936 L 117.985 105.436 Z M 8.955 70.047 27.666 66.747 M 5.655 51.335 24.367 48.036 M 28.143 52.388 47.085 50.897 M 26.652 33.446 45.594 31.956 M 49.01 39.996 68.01 39.996 M 49.01 20.996 68.01 20.996 M 68.01 49.996 87.01 49.996 M 68.01 30.996 87.01 30.996 M 87.01 51.996 106.01 51.996 M 87.01 32.996 106.01 32.996" vector-effect="non-scaling-stroke"/></g></svg>