<svg width="128.329mm" height="111.997mm" viewBox="0 0 128.329 111.997" xmlns="http://www.w3.org/2000/svg"><g id="svgGroup" stroke-linecap="round" fill-rule="evenodd" font-size="9pt" stroke="#000" stroke-width="0.25mm" fill="none" style="stroke:#000;stroke-width:0.25mm;fill:none"><rect width="100%" height="100%" fill="#e6e6e6"/><path d="M 103.935 109.642 L 17.246 109.642 A 3 3 0 0 1 14.291 107.164 L 0.046 26.448 A 3 3 0 0 1 1.684 23.231 L 48.644 0.304 A 3 3 0 0 1 49.96 0 L 104.084 0 A 3 3 0 0 1 106.995 2.274 L 128.239 87.481 A 3 3 0 0 1 127.927 89.707 L 119.093 105.011 A 3 3 0 0 1 117.221 106.422 L 104.66 109.553 A 3 3 0 0 1 103.935 109.642 Z M 55.333 109.448 L 23.973 109.448 A 2 2 0 0 1 22.032 107.932 L 1.605 26.003 A 2 2 0 0 1 3.062 23.578 L 96.21 0.354 A 2 2 0 0 1 98.634 1.811 L 121.017 91.582 A 2 2 0 0 1 120.872 92.946 L 118.871 97.032 A 2 2 0 0 1 117.559 98.092 L 95.124 103.686 A 2 2 0 0 1 92.641 101.745 L 92.641 96.425 A 2 2 0 0 0 91.114 94.482 L 88.485 93.841 A 2 2 0 0 0 88.011 93.784 L 59.333 93.784 A 2 2 0 0 0 57.333 95.784 L 57.333 107.448 A 2 2 0 0 1 55.333 109.448 Z M 31.66 85.945 L 29.195 71.966 L 49.221 70.389 L 44.654 12.369 L 24.517 13.954 L 28.991 70.806 L 21.554 28.629 L 1.661 32.137 L 11.767 89.453 L 31.66 85.945 Z M 48.41 59.596 L 67.41 59.596 L 67.41 69.596 L 86.41 69.596 L 86.41 71.596 L 106.61 71.596 L 106.61 13.396 L 87.61 13.396 L 87.61 11.396 L 68.61 11.396 L 68.61 1.396 L 48.41 1.396 L 48.41 59.596 Z M 61.41 91.596 L 81.248 91.596 L 100.777 96.465 L 100.837 96.228 L 118.205 106.256 L 128.305 88.762 L 110.811 78.662 L 100.964 95.717 L 105.664 76.865 L 86.064 71.979 L 81.61 89.844 L 81.61 71.396 L 61.41 71.396 L 61.41 91.596 Z M 68.01 58.996 L 49.01 58.996 L 49.01 1.996 L 68.01 1.996 L 68.01 68.996 L 87.01 68.996 M 68.01 11.996 L 87.01 11.996 L 87.01 70.996 L 106.01 70.996 L 106.01 13.996 L 87.01 13.996 M 29.634 71.329 L 48.575 69.838 L 44.103 13.014 L 25.162 14.505 L 29.634 71.329 Z M 30.965 85.459 L 21.067 29.325 L 2.356 32.624 L 12.254 88.758 L 30.965 85.459 Z M 40.997 109.586 L 35.917 109.586 L 35.917 76.566 L 53.697 76.566 L 53.697 109.586 L 48.617 109.586 L 48.617 111.11 L 40.997 111.11 L 40.997 109.586 Z M 59.317 109.69 L 89.317 109.69 L 89.317 95.69 L 59.317 95.69 L 59.317 109.69 Z M 62.01 90.996 L 81.01 90.996 L 81.01 71.996 L 62.01 71.996 L 62.01 90.996 Z M 81.905 91.142 L 100.34 95.738 L 104.937 77.302 L 86.501 72.706 L 81.905 91.142 Z M 111.03 79.482 L 101.53 95.936 L 117.985 105.436 L 127.485 88.982 L 111.03 79.482 Z M 28.529 31.794 L 43.482 30.617 L 43.129 26.131 L 28.176 27.308 L 28.529 31.794 Z M 25.841 65.038 L 23.237 50.266 L 18.805 51.047 L 21.41 65.82 L 25.841 65.038 Z M 22.542 46.327 L 19.937 31.555 L 15.506 32.336 L 18.11 47.108 L 22.542 46.327 Z M 51.01 38.496 L 66.01 38.496 L 66.01 33.996 L 51.01 33.996 L 51.01 38.496 Z M 30.019 50.735 L 44.973 49.559 L 44.62 45.072 L 29.666 46.249 L 30.019 50.735 Z M 31.51 69.677 L 46.464 68.5 L 46.111 64.014 L 31.157 65.191 L 31.51 69.677 Z M 29.141 83.749 L 26.536 68.977 L 22.104 69.759 L 24.709 84.531 L 29.141 83.749 Z M 103.83 94.954 L 111.33 81.964 L 115.227 84.214 L 107.727 97.204 L 103.83 94.954 Z M 51.01 57.496 L 66.01 57.496 L 66.01 52.996 L 51.01 52.996 L 51.01 57.496 Z M 51.01 19.496 L 66.01 19.496 L 66.01 14.996 L 51.01 14.996 L 51.01 19.496 Z M 70.01 67.496 L 85.01 67.496 L 85.01 62.996 L 70.01 62.996 L 70.01 67.496 Z M 70.01 48.496 L 85.01 48.496 L 85.01 43.996 L 70.01 43.996 L 70.01 48.496 Z M 89.01 50.496 L 104.01 50.496 L 104.01 45.996 L 89.01 45.996 L 89.01 50.496 Z M 88.51 30.996 L 88.51 15.996 L 93.01 15.996 L 93.01 30.996 L 88.51 30.996 Z M 70.01 29.496 L 85.01 29.496 L 85.01 24.996 L 70.01 24.996 L 70.01 29.496 Z M 64.01 89.496 L 79.01 89.496 L 79.01 84.996 L 64.01 84.996 L 64.01 89.496 Z M 89.01 69.496 L 104.01 69.496 L 104.01 64.996 L 89.01 64.996 L 89.01 69.496 Z M 84.208 90.17 L 98.763 93.799 L 99.851 89.432 L 85.297 85.804 L 84.208 90.17 Z M 51.838 69.759 L 51.838 62.159 L 52.538 62.159 L 52.538 63.759 L 59.038 63.759 L 59.038 62.159 L 59.738 62.159 L 59.738 69.759 L 51.838 69.759 Z M 32.232 106.497 L 32.232 109.497 L 30.232 109.497 L 30.232 111.997 L 26.232 111.997 L 26.232 109.497 L 24.232 109.497 L 24.232 106.497 L 25.232 106.497 L 25.232 105.497 L 31.232 105.497 L 31.232 106.497 L 32.232 106.497 Z M 60.071 88.005 L 60.071 80.005 L 56.571 80.005 L 56.571 88.005 L 60.071 88.005 Z M 16.982 40.707 L 16.344 42.85 L 18.602 55.653 L 19.934 57.449 M 20.281 59.418 L 19.644 61.562 L 21.901 74.364 L 23.233 76.16 M 5.364 26.612 m -2.7 0 a 2.7 2.7 0 0 1 5.4 0 a 2.7 2.7 0 0 1 -5.4 0 z M 94.509 5.931 m -2.7 0 a 2.7 2.7 0 0 1 5.4 0 a 2.7 2.7 0 0 1 -5.4 0 z M 112.899 73.489 m -2.7 0 a 2.7 2.7 0 0 1 5.4 0 a 2.7 2.7 0 0 1 -5.4 0 z M 96.268 99.794 m -2.7 0 a 2.7 2.7 0 0 1 5.4 0 a 2.7 2.7 0 0 1 -5.4 0 z M 23.391 92.714 m -2.7 0 a 2.7 2.7 0 0 1 5.4 0 a 2.7 2.7 0 0 1 -5.4 0 z M 21.5 40.418 L 20.863 42.561 L 22.947 54.379 L 24.279 56.175 M 24.8 59.129 L 24.162 61.273 L 26.246 73.09 L 27.578 74.886 M 14.174 30.54 L 15.302 36.941 L 16.634 38.737 M 87.01 61.996 L 80.51 61.996 L 78.51 62.996 M 87.01 42.996 L 80.51 42.996 L 78.51 43.996 M 106.01 63.996 L 99.51 63.996 L 97.51 64.996 M 106.01 44.996 L 99.51 44.996 L 97.51 45.996 M 26.103 26.468 L 32.583 25.958 L 34.655 26.798 M 45.045 24.977 L 38.565 25.487 L 36.649 26.641 M 24.072 86.674 L 22.943 80.273 L 23.58 78.13 M 107.593 99.436 L 110.843 93.807 L 110.977 91.575 M 68.01 23.996 L 74.51 23.996 L 76.51 24.996 M 94.01 13.996 L 94.01 20.496 L 93.01 22.496 M 62.01 83.996 L 68.51 83.996 L 70.51 84.996 M 46.535 43.919 L 40.055 44.429 L 38.14 45.582 M 29.085 64.351 L 35.565 63.841 L 37.637 64.681 M 27.594 45.409 L 34.074 44.899 L 36.146 45.739 M 48.026 62.86 L 41.546 63.37 L 39.631 64.524 M 68.01 51.996 L 61.51 51.996 L 59.51 52.996 M 68.01 32.996 L 61.51 32.996 L 59.51 33.996 M 68.01 13.996 L 61.51 13.996 L 59.51 14.996 M 81.01 83.996 L 74.51 83.996 L 72.51 84.996 M 87.01 23.996 L 80.51 23.996 L 78.51 24.996 M 94.01 32.996 L 94.01 26.496 L 93.01 24.496 M 102.034 88.946 L 95.727 87.374 L 93.544 87.86 M 83.598 84.35 L 89.905 85.922 L 91.604 87.376 M 117.093 82.982 L 113.843 88.611 L 111.977 89.843 M 49.01 51.996 L 55.51 51.996 L 57.51 52.996 M 49.01 32.996 L 55.51 32.996 L 57.51 33.996 M 49.01 13.996 L 55.51 13.996 L 57.51 14.996 M 68.01 61.996 L 74.51 61.996 L 76.51 62.996 M 87.01 63.996 L 93.51 63.996 L 95.51 64.996 M 87.01 44.996 L 93.51 44.996 L 95.51 45.996 M 68.01 42.996 L 74.51 42.996 L 76.51 43.996 M 34.51 31.323 L 32.438 30.483 L 26.456 30.954 M 106.83 89.758 L 106.696 91.99 L 103.696 97.186 M 57.01 19.496 L 55.01 18.496 L 49.01 18.496 M 57.01 38.496 L 55.01 37.496 L 49.01 37.496 M 95.01 69.496 L 93.01 68.496 L 87.01 68.496 M 98.01 50.496 L 100.01 49.496 L 106.01 49.496 M 60.01 57.496 L 62.01 56.496 L 68.01 56.496 M 79.01 29.496 L 81.01 28.496 L 87.01 28.496 M 73.01 89.496 L 75.01 88.496 L 81.01 88.496 M 76.01 67.496 L 74.01 66.496 L 68.01 66.496 M 76.01 48.496 L 74.01 47.496 L 68.01 47.496 M 76.01 29.496 L 74.01 28.496 L 68.01 28.496 M 88.51 21.996 L 89.51 19.996 L 89.51 13.996 M 70.01 89.496 L 68.01 88.496 L 62.01 88.496 M 98.01 69.496 L 100.01 68.496 L 106.01 68.496 M 60.01 19.496 L 62.01 18.496 L 68.01 18.496 M 37.492 69.206 L 35.419 68.366 L 29.438 68.837 M 36.001 50.265 L 33.929 49.425 L 27.947 49.895 M 20.979 37.463 L 19.647 35.668 L 18.605 29.759 M 92.941 92.347 L 95.123 91.861 L 100.945 93.312 M 40.482 68.971 L 42.398 67.817 L 48.379 67.346 M 38.992 50.029 L 40.907 48.875 L 46.888 48.405 M 95.01 50.496 L 93.01 49.496 L 87.01 49.496 M 88.51 24.996 L 89.51 26.996 L 89.51 32.996 M 90.03 91.622 L 88.331 90.167 L 82.51 88.716 M 79.01 67.496 L 81.01 66.496 L 87.01 66.496 M 79.01 48.496 L 81.01 47.496 L 87.01 47.496 M 108.33 87.16 L 110.196 85.928 L 113.196 80.732 M 57.01 57.496 L 55.01 56.496 L 49.01 56.496 M 60.01 38.496 L 62.01 37.496 L 68.01 37.496 M 37.501 31.088 L 39.416 29.934 L 45.398 29.463 M 28.099 77.841 L 27.461 79.984 L 28.503 85.893 M 8.955 70.047 27.666 66.747 M 5.655 51.335 24.367 48.036 M 28.143 52.388 47.085 50.897 M 26.652 33.446 45.594 31.956 M 49.01 39.996 68.01 39.996 M 49.01 20.996 68.01 20.996 M 68.01 49.996 87.01 49.996 M 68.01 30.996 87.01 30.996 M 87.01 51.996 106.01 51.996 M 87.01 32.996 106.01 32.996" vector-effect="non-scaling-stroke"/></g></svg>