<svg width="123.862mm" height="105.978mm" viewBox="0 0 123.862 105.978" xmlns="http://www.w3.org/2000/svg"><g id="svgGroup" stroke-linecap="round" fill-rule="evenodd" font-size="9pt" stroke="#000" stroke-width="0.25mm" fill="none" style="stroke:#000;stroke-width:0.25mm;fill:none"><rect width="100%" height="100%" fill="#e6e6e6"/><path d="M 51.58 105.978 L 19.496 105.786 A 2 2 0 0 1 17.568 104.27 L 9.493 71.884 A 2 2 0 0 1 9.464 71.747 L 1.096 24.292 A 2 2 0 0 1 2.582 22.004 L 84.422 1.599 A 2 2 0 0 1 85 1.542 L 93.649 1.95 A 2 2 0 0 1 95.495 3.464 L 117.252 90.726 A 2 2 0 0 1 117.026 92.24 L 114.42 96.578 A 2 2 0 0 1 113.189 97.488 L 96.625 101.618 A 2 2 0 0 1 94.142 99.677 L 94.142 93.079 A 2 2 0 0 0 92.628 91.14 L 77.901 87.448 A 2 2 0 0 0 77.395 87.388 L 55.573 87.594 A 2 2 0 0 0 53.592 89.594 L 53.592 103.978 A 2 2 0 0 1 51.58 105.978 Z M 99.468 105.971 L 16.902 105.971 A 3 3 0 0 1 13.947 103.492 L 0.046 24.728 A 3 3 0 0 1 1.654 21.525 L 43.906 0.319 A 3 3 0 0 1 45.251 0 L 100.533 0 A 3 3 0 0 1 103.444 2.274 L 123.773 83.81 A 3 3 0 0 1 123.46 86.035 L 114.626 101.339 A 3 3 0 0 1 112.754 102.75 L 100.194 105.881 A 3 3 0 0 1 99.468 105.971 Z M 64.572 55.253 L 46.572 55.253 L 46.572 1.253 L 64.572 1.253 L 64.572 64.723 L 82.572 64.723 M 64.572 10.723 L 82.572 10.723 L 82.572 66.613 L 100.572 66.613 L 100.572 12.613 L 82.572 12.613 M 5.496 47.976 L 2.37 30.25 L 20.097 27.124 L 29.474 80.304 L 11.747 83.43 L 5.496 47.976 L 23.223 44.851 M 28.221 66.933 L 46.165 65.521 L 41.928 11.687 L 23.984 13.1 L 28.221 66.933 Z M 78.873 86.535 L 96.339 90.889 L 100.693 73.424 L 83.228 69.069 L 78.873 86.535 Z M 58.872 86.253 L 76.872 86.253 L 76.872 68.253 L 58.872 68.253 L 58.872 86.253 Z M 113.194 100.268 L 122.194 84.68 L 106.606 75.68 L 97.606 91.268 L 113.194 100.268 Z M 8.622 65.703 26.348 62.577 M 26.808 48.989 44.753 47.576 M 25.396 31.044 43.341 29.632 M 46.572 37.253 64.572 37.253 M 46.572 19.253 64.572 19.253 M 64.572 46.723 82.572 46.723 M 64.572 28.723 82.572 28.723 M 82.572 48.613 100.572 48.613 M 82.572 30.613 100.572 30.613" vector-effect="non-scaling-stroke"/></g></svg>