<svg width="120.411mm" height="102.453mm" viewBox="0 0 120.411 102.453" xmlns="http://www.w3.org/2000/svg"><g id="svgGroup" stroke-linecap="round" fill-rule="evenodd" font-size="9pt" stroke="#000" stroke-width="0.25mm" fill="none" style="stroke:#000;stroke-width:0.25mm;fill:none"><rect width="100%" height="100%" fill="#e6e6e6"/><path d="M 11.098 80.93 L 31.189 77.388 L 28.921 64.531 L 47.365 63.241 L 46.695 53.652 L 62.938 53.652 L 62.938 62.152 L 80.938 62.152 L 80.938 64.112 L 80.726 64.056 L 78.138 73.714 L 78.138 63.752 L 57.738 63.752 L 57.738 83.152 L 77.038 83.152 L 94.072 87.716 L 110.419 97.539 L 120.411 80.909 L 102.925 70.403 L 97.908 78.752 L 100.431 69.335 L 82.951 64.652 L 101.338 64.652 L 101.338 11.252 L 83.338 11.252 L 83.338 8.752 L 65.338 8.752 L 65.338 0.252 L 44.938 0.252 L 44.938 28.539 L 43.64 9.971 L 23.29 11.394 L 25.746 46.522 L 21.916 24.799 L 1.826 28.341 L 11.098 80.93 Z M 107.708 98.724 A 2 2 0 0 0 109.064 97.804 L 114.509 88.963 A 2 2 0 0 0 114.776 87.567 L 99.885 3.118 A 2 2 0 0 0 98.149 1.479 L 89.55 0.469 A 2 2 0 0 0 88.969 0.486 L 2.595 15.716 A 2 2 0 0 0 0.973 18.033 L 15.094 98.119 A 2 2 0 0 0 17.064 99.772 L 52.443 99.772 A 1 1 0 0 0 53.443 98.772 L 53.443 85.938 A 1 1 0 0 1 54.443 84.938 L 83.269 84.938 A 1 1 0 0 1 83.523 84.971 L 87.976 86.139 A 1 1 0 0 1 88.722 87.106 L 88.722 98.772 A 1 1 0 0 0 89.722 99.772 L 101.592 99.772 A 2 2 0 0 0 101.939 99.742 M 99.927 100.096 L 107.74 98.719 A 3 3 0 0 0 109.789 97.312 L 119.109 81.835 A 3 3 0 0 0 119.493 79.767 L 105.865 2.479 A 3 3 0 0 0 102.911 0 L 45.022 0 A 3 3 0 0 0 44.013 0.175 L 1.991 15.188 A 3 3 0 0 0 0.046 18.534 L 13.969 97.495 A 3 3 0 0 0 16.917 99.974 L 99.4 100.142 A 3 3 0 0 0 99.927 100.096 Z M 64.138 52.452 L 46.138 52.452 L 46.138 1.452 L 64.138 1.452 L 64.138 60.952 L 82.138 60.952 M 64.138 9.952 L 82.138 9.952 L 82.138 63.452 L 100.138 63.452 L 100.138 12.452 L 82.138 12.452 M 12.072 79.54 L 29.798 76.414 L 20.942 26.189 L 3.216 29.315 L 12.072 79.54 Z M 28.128 63.383 L 46.084 62.128 L 42.527 11.252 L 24.571 12.507 L 28.128 63.383 Z M 38.897 99.737 L 33.817 99.737 L 33.817 66.717 L 51.597 66.717 L 51.597 99.737 L 46.517 99.737 L 46.517 101.261 L 38.897 101.261 L 38.897 99.737 Z M 53.956 99.611 L 83.956 99.611 L 83.956 85.611 L 53.956 85.611 L 53.956 99.611 Z M 94.58 86.621 L 110.009 95.892 L 118.765 81.32 L 103.336 72.049 L 94.58 86.621 Z M 58.938 81.952 L 76.938 81.952 L 76.938 64.952 L 58.938 64.952 L 58.938 81.952 Z M 77.175 81.946 L 94.562 86.605 L 98.962 70.184 L 81.575 65.525 L 77.175 81.946 Z M 49.008 62.841 L 49.008 55.241 L 49.708 55.241 L 49.708 56.841 L 56.208 56.841 L 56.208 55.241 L 56.908 55.241 L 56.908 62.841 L 49.008 62.841 Z M 30.323 96.953 L 30.323 99.953 L 28.323 99.953 L 28.323 102.453 L 24.323 102.453 L 24.323 99.953 L 22.323 99.953 L 22.323 96.953 L 23.323 96.953 L 23.323 95.953 L 29.323 95.953 L 29.323 96.953 L 30.323 96.953 Z M 53.523 71.476 L 53.523 79.476 L 57.023 79.476 L 57.023 71.476 L 53.523 71.476 Z M 93.438 29.452 L 93.438 28.452 L 94.938 28.452 L 94.938 25.452 L 93.438 25.452 L 93.438 24.452 L 88.838 24.452 L 88.838 25.452 L 87.338 25.452 L 87.338 28.452 L 88.838 28.452 L 88.838 29.452 M 93.438 63.452 L 93.438 62.452 L 94.938 62.452 L 94.938 59.452 L 93.438 59.452 L 93.438 58.452 L 88.838 58.452 L 88.838 59.452 L 87.338 59.452 L 87.338 62.452 L 88.838 62.452 L 88.838 63.452 M 57.438 35.452 L 57.438 34.452 L 58.938 34.452 L 58.938 31.452 L 57.438 31.452 L 57.438 30.452 L 52.838 30.452 L 52.838 31.452 L 51.338 31.452 L 51.338 34.452 L 52.838 34.452 L 52.838 35.452 M 39.401 62.595 L 39.331 61.597 L 40.827 61.493 L 40.618 58.5 L 39.122 58.605 L 39.052 57.607 L 34.463 57.928 L 34.533 58.925 L 33.036 59.03 L 33.246 62.023 L 34.742 61.918 L 34.812 62.916 M 93.438 46.452 L 93.438 45.452 L 94.938 45.452 L 94.938 42.452 L 93.438 42.452 L 93.438 41.452 L 88.838 41.452 L 88.838 42.452 L 87.338 42.452 L 87.338 45.452 L 88.838 45.452 L 88.838 46.452 M 57.438 18.452 L 57.438 17.452 L 58.938 17.452 L 58.938 14.452 L 57.438 14.452 L 57.438 13.452 L 52.838 13.452 L 52.838 14.452 L 51.338 14.452 L 51.338 17.452 L 52.838 17.452 L 52.838 18.452 M 88.09 84.871 L 88.349 83.905 L 89.798 84.293 L 90.574 81.395 L 89.125 81.007 L 89.384 80.041 L 84.941 78.85 L 84.682 79.816 L 83.233 79.428 L 82.457 82.326 L 83.905 82.714 L 83.647 83.68 M 57.438 52.452 L 57.438 51.452 L 58.938 51.452 L 58.938 48.452 L 57.438 48.452 L 57.438 47.452 L 52.838 47.452 L 52.838 48.452 L 51.338 48.452 L 51.338 51.452 L 52.838 51.452 L 52.838 52.452 M 70.238 81.952 L 70.238 80.952 L 71.738 80.952 L 71.738 77.952 L 70.238 77.952 L 70.238 76.952 L 65.638 76.952 L 65.638 77.952 L 64.138 77.952 L 64.138 80.952 L 65.638 80.952 L 65.638 81.952 M 37.029 28.678 L 36.959 27.68 L 38.455 27.575 L 38.246 24.583 L 36.75 24.687 L 36.68 23.69 L 32.091 24.011 L 32.161 25.008 L 30.665 25.113 L 30.874 28.106 L 32.37 28.001 L 32.44 28.999 M 38.215 45.636 L 38.145 44.639 L 39.641 44.534 L 39.432 41.541 L 37.936 41.646 L 37.866 40.648 L 33.277 40.969 L 33.347 41.967 L 31.851 42.072 L 32.06 45.064 L 33.556 44.96 L 33.626 45.957 M 75.438 26.952 L 75.438 25.952 L 76.938 25.952 L 76.938 22.952 L 75.438 22.952 L 75.438 21.952 L 70.838 21.952 L 70.838 22.952 L 69.338 22.952 L 69.338 25.952 L 70.838 25.952 L 70.838 26.952 M 75.438 43.952 L 75.438 42.952 L 76.938 42.952 L 76.938 39.952 L 75.438 39.952 L 75.438 38.952 L 70.838 38.952 L 70.838 39.952 L 69.338 39.952 L 69.338 42.952 L 70.838 42.952 L 70.838 43.952 M 17.296 44.094 L 17.122 43.109 L 18.6 42.849 L 18.079 39.895 L 16.602 40.155 L 16.428 39.17 L 11.898 39.969 L 12.071 40.954 L 10.594 41.214 L 11.115 44.169 L 12.592 43.908 L 12.766 44.893 M 75.438 60.952 L 75.438 59.952 L 76.938 59.952 L 76.938 56.952 L 75.438 56.952 L 75.438 55.952 L 70.838 55.952 L 70.838 56.952 L 69.338 56.952 L 69.338 59.952 L 70.838 59.952 L 70.838 60.952 M 104.266 92.441 L 104.781 91.584 L 106.067 92.356 L 107.612 89.785 L 106.326 89.012 L 106.841 88.155 L 102.898 85.786 L 102.383 86.643 L 101.097 85.871 L 99.552 88.442 L 100.838 89.215 L 100.323 90.072 M 20.248 60.836 L 20.075 59.851 L 21.552 59.591 L 21.031 56.636 L 19.554 56.897 L 19.38 55.912 L 14.85 56.711 L 15.023 57.696 L 13.546 57.956 L 14.067 60.91 L 15.544 60.65 L 15.718 61.635 M 23.2 77.578 L 23.027 76.593 L 24.504 76.332 L 23.983 73.378 L 22.506 73.638 L 22.332 72.654 L 17.802 73.452 L 17.975 74.437 L 16.498 74.698 L 17.019 77.652 L 18.496 77.392 L 18.67 78.376 M 7.634 18.381 m -2.7 0 a 2.7 2.7 0 0 1 5.4 0 a 2.7 2.7 0 0 1 -5.4 0 z M 88.881 4.055 m -2.7 0 a 2.7 2.7 0 0 1 5.4 0 a 2.7 2.7 0 0 1 -5.4 0 z M 107.815 68.243 m -2.7 0 a 2.7 2.7 0 0 1 5.4 0 a 2.7 2.7 0 0 1 -5.4 0 z M 93.763 95.091 m -2.7 0 a 2.7 2.7 0 0 1 5.4 0 a 2.7 2.7 0 0 1 -5.4 0 z M 16.748 87.346 m -2.7 0 a 2.7 2.7 0 0 1 5.4 0 a 2.7 2.7 0 0 1 -5.4 0 z M 25.303 22.982 L 26.799 22.877 L 26.73 21.88 L 31.717 21.531 L 31.787 22.528 L 33.388 23.92 M 26.489 39.94 L 27.985 39.836 L 27.915 38.838 L 32.903 38.489 L 32.973 39.487 L 34.574 40.879 M 25.718 53.271 L 24.24 53.532 L 24.067 52.547 L 19.143 53.415 L 19.316 54.4 L 18.1 56.138 M 64.138 54.452 L 65.638 54.452 L 65.638 53.452 L 70.638 53.452 L 70.638 54.452 L 72.138 55.952 M 28.67 70.013 L 27.192 70.273 L 27.019 69.289 L 22.095 70.157 L 22.268 71.142 L 21.052 72.879 M 46.138 11.952 L 47.638 11.952 L 47.638 10.952 L 52.638 10.952 L 52.638 11.952 L 54.138 13.452 M 64.138 45.952 L 62.638 45.952 L 62.638 44.952 L 57.638 44.952 L 57.638 45.952 L 56.138 47.452 M 27.675 56.899 L 29.171 56.794 L 29.101 55.797 L 34.089 55.448 L 34.159 56.446 L 35.76 57.837 M 64.138 37.452 L 65.638 37.452 L 65.638 36.452 L 70.638 36.452 L 70.638 37.452 L 72.138 38.952 M 5.039 39.655 L 6.516 39.395 L 6.343 38.41 L 11.267 37.542 L 11.44 38.527 L 13.178 39.743 M 10.943 73.139 L 12.42 72.878 L 12.247 71.893 L 17.171 71.025 L 17.344 72.01 L 19.082 73.227 M 78.857 75.667 L 80.306 76.056 L 80.565 75.09 L 85.395 76.384 L 85.136 77.35 L 86.196 79.187 M 45.631 55.643 L 44.135 55.748 L 44.065 54.75 L 39.077 55.099 L 39.147 56.097 L 37.755 57.698 M 46.138 45.952 L 47.638 45.952 L 47.638 44.952 L 52.638 44.952 L 52.638 45.952 L 54.138 47.452 M 46.138 28.952 L 47.638 28.952 L 47.638 27.952 L 52.638 27.952 L 52.638 28.952 L 54.138 30.452 M 64.138 20.452 L 65.638 20.452 L 65.638 19.452 L 70.638 19.452 L 70.638 20.452 L 72.138 21.952 M 58.938 75.452 L 60.438 75.452 L 60.438 74.452 L 65.438 74.452 L 65.438 75.452 L 66.938 76.952 M 64.138 28.952 L 62.638 28.952 L 62.638 27.952 L 57.638 27.952 L 57.638 28.952 L 56.138 30.452 M 82.138 37.452 L 80.638 37.452 L 80.638 36.452 L 75.638 36.452 L 75.638 37.452 L 74.138 38.952 M 82.138 54.452 L 80.638 54.452 L 80.638 53.452 L 75.638 53.452 L 75.638 54.452 L 74.138 55.952 M 96.244 80.326 L 94.795 79.938 L 95.054 78.972 L 90.224 77.678 L 89.965 78.644 L 88.128 79.705 M 82.138 56.952 L 83.638 56.952 L 83.638 55.952 L 88.638 55.952 L 88.638 56.952 L 90.138 58.452 M 100.138 22.952 L 98.638 22.952 L 98.638 21.952 L 93.638 21.952 L 93.638 22.952 L 92.138 24.452 M 100.138 56.952 L 98.638 56.952 L 98.638 55.952 L 93.638 55.952 L 93.638 56.952 L 92.138 58.452 M 22.766 36.53 L 21.288 36.79 L 21.115 35.805 L 16.191 36.673 L 16.364 37.658 L 15.148 39.396 M 7.991 56.397 L 9.468 56.136 L 9.295 55.152 L 14.219 54.283 L 14.392 55.268 L 16.13 56.485 M 44.445 38.685 L 42.949 38.789 L 42.879 37.792 L 37.891 38.141 L 37.961 39.138 L 36.569 40.739 M 82.138 39.952 L 83.638 39.952 L 83.638 38.952 L 88.638 38.952 L 88.638 39.952 L 90.138 41.452 M 82.138 20.452 L 80.638 20.452 L 80.638 19.452 L 75.638 19.452 L 75.638 20.452 L 74.138 21.952 M 97.928 81.05 L 99.213 81.822 L 99.728 80.965 L 104.014 83.54 L 103.499 84.397 L 104.012 86.456 M 76.938 75.452 L 75.438 75.452 L 75.438 74.452 L 70.438 74.452 L 70.438 75.452 L 68.938 76.952 M 64.138 11.952 L 62.638 11.952 L 62.638 10.952 L 57.638 10.952 L 57.638 11.952 L 56.138 13.452 M 100.138 39.952 L 98.638 39.952 L 98.638 38.952 L 93.638 38.952 L 93.638 39.952 L 92.138 41.452 M 113.357 90.32 L 112.071 89.548 L 112.586 88.691 L 108.3 86.115 L 107.785 86.973 L 105.727 87.486 M 82.138 22.952 L 83.638 22.952 L 83.638 21.952 L 88.638 21.952 L 88.638 22.952 L 90.138 24.452 M 43.259 21.726 L 41.763 21.831 L 41.693 20.833 L 36.705 21.182 L 36.775 22.18 L 35.383 23.781 M 52.638 35.452 L 52.638 34.452 L 51.138 32.952 L 47.638 32.952 L 47.638 31.952 L 46.138 31.952 M 70.638 26.952 L 70.638 25.952 L 69.138 24.452 L 65.638 24.452 L 65.638 23.452 L 64.138 23.452 M 65.438 81.952 L 65.438 80.952 L 63.938 79.452 L 60.438 79.452 L 60.438 78.452 L 58.938 78.452 M 32.241 29.013 L 32.171 28.015 L 30.57 26.623 L 27.078 26.867 L 27.009 25.87 L 25.512 25.974 M 52.638 18.452 L 52.638 17.452 L 51.138 15.952 L 47.638 15.952 L 47.638 14.952 L 46.138 14.952 M 15.521 61.669 L 15.347 60.685 L 13.61 59.468 L 10.163 60.076 L 9.989 59.091 L 8.512 59.351 M 52.638 52.452 L 52.638 51.452 L 51.138 49.952 L 47.638 49.952 L 47.638 48.952 L 46.138 48.952 M 88.638 29.452 L 88.638 28.452 L 87.138 26.952 L 83.638 26.952 L 83.638 25.952 L 82.138 25.952 M 88.638 46.452 L 88.638 45.452 L 87.138 43.952 L 83.638 43.952 L 83.638 42.952 L 82.138 42.952 M 12.569 44.928 L 12.395 43.943 L 10.658 42.726 L 7.211 43.334 L 7.037 42.349 L 5.56 42.61 M 57.638 52.452 L 57.638 51.452 L 59.138 49.952 L 62.638 49.952 L 62.638 48.952 L 64.138 48.952 M 75.638 43.952 L 75.638 42.952 L 77.138 41.452 L 80.638 41.452 L 80.638 40.452 L 82.138 40.452 M 75.638 26.952 L 75.638 25.952 L 77.138 24.452 L 80.638 24.452 L 80.638 23.452 L 82.138 23.452 M 70.438 81.952 L 70.438 80.952 L 71.938 79.452 L 75.438 79.452 L 75.438 78.452 L 76.938 78.452 M 88.638 63.452 L 88.638 62.452 L 87.138 60.952 L 83.638 60.952 L 83.638 59.952 L 82.138 59.952 M 70.638 43.952 L 70.638 42.952 L 69.138 41.452 L 65.638 41.452 L 65.638 40.452 L 64.138 40.452 M 70.638 60.952 L 70.638 59.952 L 69.138 58.452 L 65.638 58.452 L 65.638 57.452 L 64.138 57.452 M 34.612 62.93 L 34.543 61.932 L 32.942 60.54 L 29.45 60.785 L 29.38 59.787 L 27.884 59.892 M 17.493 44.06 L 17.319 43.075 L 18.536 41.337 L 21.983 40.729 L 21.809 39.744 L 23.287 39.484 M 57.638 35.452 L 57.638 34.452 L 59.138 32.952 L 62.638 32.952 L 62.638 31.952 L 64.138 31.952 M 57.638 18.452 L 57.638 17.452 L 59.138 15.952 L 62.638 15.952 L 62.638 14.952 L 64.138 14.952 M 75.638 60.952 L 75.638 59.952 L 77.138 58.452 L 80.638 58.452 L 80.638 57.452 L 82.138 57.452 M 104.437 92.544 L 104.952 91.687 L 107.011 91.174 L 110.011 92.976 L 110.526 92.119 L 111.812 92.892 M 100.151 89.969 L 100.666 89.112 L 100.153 87.053 L 97.153 85.251 L 97.668 84.394 L 96.383 83.621 M 18.473 78.411 L 18.299 77.426 L 16.562 76.21 L 13.115 76.817 L 12.941 75.833 L 11.464 76.093 M 93.638 63.452 L 93.638 62.452 L 95.138 60.952 L 98.638 60.952 L 98.638 59.952 L 100.138 59.952 M 23.397 77.543 L 23.223 76.558 L 24.44 74.82 L 27.887 74.213 L 27.713 73.228 L 29.191 72.967 M 88.283 84.922 L 88.542 83.956 L 90.379 82.896 L 93.76 83.802 L 94.019 82.836 L 95.467 83.224 M 83.453 83.628 L 83.712 82.662 L 82.652 80.825 L 79.271 79.919 L 79.53 78.953 L 78.081 78.565 M 33.426 45.971 L 33.357 44.974 L 31.756 43.582 L 28.264 43.826 L 28.194 42.828 L 26.698 42.933 M 20.445 60.801 L 20.271 59.816 L 21.488 58.079 L 24.935 57.471 L 24.761 56.486 L 26.239 56.226 M 93.638 46.452 L 93.638 45.452 L 95.138 43.952 L 98.638 43.952 L 98.638 42.952 L 100.138 42.952 M 93.638 29.452 L 93.638 28.452 L 95.138 26.952 L 98.638 26.952 L 98.638 25.952 L 100.138 25.952 M 39.6 62.581 L 39.53 61.583 L 40.922 59.982 L 44.414 59.738 L 44.344 58.741 L 45.84 58.636 M 38.414 45.622 L 38.344 44.625 L 39.736 43.024 L 43.228 42.78 L 43.158 41.782 L 44.654 41.677 M 37.228 28.664 L 37.159 27.666 L 38.55 26.065 L 42.042 25.821 L 41.972 24.823 L 43.468 24.719 M 9.12 62.798 26.846 59.673 M 6.168 46.056 23.894 42.931 M 26.942 46.425 44.898 45.169 M 25.756 29.466 43.713 28.21 M 46.138 35.452 64.138 35.452 M 46.138 18.452 64.138 18.452 M 64.138 43.952 82.138 43.952 M 64.138 26.952 82.138 26.952 M 82.138 46.452 100.138 46.452 M 82.138 29.452 100.138 29.452" vector-effect="non-scaling-stroke"/></g></svg>