<svg width="128.329mm" height="111.997mm" viewBox="0 0 128.329 111.997" xmlns="http://www.w3.org/2000/svg"><g id="svgGroup" stroke-linecap="round" fill-rule="evenodd" font-size="9pt" stroke="#000" stroke-width="0.25mm" fill="none" style="stroke:#000;stroke-width:0.25mm;fill:none"><rect width="100%" height="100%" fill="#e6e6e6"/><path d="M 103.935 109.642 L 17.246 109.642 A 3 3 0 0 1 14.291 107.164 L 0.046 26.448 A 3 3 0 0 1 1.684 23.231 L 48.644 0.304 A 3 3 0 0 1 49.96 0 L 104.084 0 A 3 3 0 0 1 106.995 2.274 L 128.239 87.481 A 3 3 0 0 1 127.927 89.707 L 119.093 105.011 A 3 3 0 0 1 117.221 106.422 L 104.66 109.553 A 3 3 0 0 1 103.935 109.642 Z M 55.333 109.448 L 23.973 109.448 A 2 2 0 0 1 22.032 107.932 L 1.605 26.003 A 2 2 0 0 1 3.062 23.578 L 96.21 0.354 A 2 2 0 0 1 98.634 1.811 L 121.017 91.582 A 2 2 0 0 1 120.872 92.946 L 118.871 97.032 A 2 2 0 0 1 117.559 98.092 L 95.124 103.686 A 2 2 0 0 1 92.641 101.745 L 92.641 96.425 A 2 2 0 0 0 91.114 94.482 L 88.485 93.841 A 2 2 0 0 0 88.011 93.784 L 59.333 93.784 A 2 2 0 0 0 57.333 95.784 L 57.333 107.448 A 2 2 0 0 1 55.333 109.448 Z M 11.767 89.453 L 1.661 32.137 L 21.554 28.629 L 28.991 70.806 L 24.517 13.954 L 44.654 12.369 L 49.221 70.389 L 29.195 71.966 L 31.66 85.945 L 11.767 89.453 Z M 48.41 59.596 L 67.41 59.596 L 67.41 69.596 L 86.41 69.596 L 86.41 71.596 L 106.61 71.596 L 106.61 13.396 L 87.61 13.396 L 87.61 11.396 L 68.61 11.396 L 68.61 1.396 L 48.41 1.396 L 48.41 59.596 Z M 61.41 91.596 L 81.248 91.596 L 100.777 96.465 L 100.837 96.228 L 118.205 106.256 L 128.305 88.762 L 110.811 78.662 L 100.964 95.717 L 105.664 76.865 L 86.064 71.979 L 81.61 89.844 L 81.61 71.396 L 61.41 71.396 L 61.41 91.596 Z M 68.01 58.996 L 49.01 58.996 L 49.01 1.996 L 68.01 1.996 L 68.01 68.996 L 87.01 68.996 M 68.01 11.996 L 87.01 11.996 L 87.01 70.996 L 106.01 70.996 L 106.01 13.996 L 87.01 13.996 M 29.634 71.329 L 48.575 69.838 L 44.103 13.014 L 25.162 14.505 L 29.634 71.329 Z M 12.254 88.758 L 2.356 32.624 L 21.067 29.325 L 30.965 85.459 L 12.254 88.758 Z M 40.997 109.586 L 35.917 109.586 L 35.917 76.566 L 53.697 76.566 L 53.697 109.586 L 48.617 109.586 L 48.617 111.11 L 40.997 111.11 L 40.997 109.586 Z M 59.317 109.69 L 89.317 109.69 L 89.317 95.69 L 59.317 95.69 L 59.317 109.69 Z M 62.01 90.996 L 81.01 90.996 L 81.01 71.996 L 62.01 71.996 L 62.01 90.996 Z M 81.905 91.142 L 100.34 95.738 L 104.937 77.302 L 86.501 72.706 L 81.905 91.142 Z M 117.985 105.436 L 127.485 88.982 L 111.03 79.482 L 101.53 95.936 L 117.985 105.436 Z M 104.446 95.887 L 112.446 82.031 L 115.91 84.031 L 107.91 97.887 L 104.446 95.887 Z M 87.352 75.495 L 102.877 79.365 L 101.909 83.247 L 86.384 79.376 L 87.352 75.495 Z M 29.835 54.762 L 45.785 53.507 L 46.099 57.495 L 30.149 58.75 L 29.835 54.762 Z M 21.644 46.993 L 18.866 31.236 L 14.927 31.93 L 17.705 47.687 L 21.644 46.993 Z M 50.51 42.496 L 66.51 42.496 L 66.51 46.496 L 50.51 46.496 L 50.51 42.496 Z M 50.51 23.496 L 66.51 23.496 L 66.51 27.496 L 50.51 27.496 L 50.51 23.496 Z M 50.51 18.496 L 66.51 18.496 L 66.51 14.496 L 50.51 14.496 L 50.51 18.496 Z M 69.51 52.496 L 85.51 52.496 L 85.51 56.496 L 69.51 56.496 L 69.51 52.496 Z M 88.51 54.496 L 104.51 54.496 L 104.51 58.496 L 88.51 58.496 L 88.51 54.496 Z M 89.51 31.496 L 89.51 15.496 L 93.51 15.496 L 93.51 31.496 L 89.51 31.496 Z M 27.952 30.836 L 43.902 29.581 L 43.589 25.593 L 27.638 26.849 L 27.952 30.836 Z M 28.344 35.821 L 44.295 34.566 L 44.608 38.553 L 28.658 39.809 L 28.344 35.821 Z M 24.943 65.704 L 22.165 49.947 L 18.226 50.642 L 21.004 66.399 L 24.943 65.704 Z M 69.51 14.496 L 85.51 14.496 L 85.51 18.496 L 69.51 18.496 L 69.51 14.496 Z M 89.51 50.496 L 89.51 34.496 L 93.51 34.496 L 93.51 50.496 L 89.51 50.496 Z M 63.51 74.496 L 79.51 74.496 L 79.51 78.496 L 63.51 78.496 L 63.51 74.496 Z M 69.51 33.496 L 85.51 33.496 L 85.51 37.496 L 69.51 37.496 L 69.51 33.496 Z M 28.243 84.415 L 25.464 68.659 L 21.525 69.353 L 24.304 85.11 L 28.243 84.415 Z M 64.01 42.496 L 65.01 43.496 L 65.01 45.496 L 67.51 45.496 L 67.51 48.996 L 61.01 48.996 L 58.51 46.496 L 56.01 48.996 L 49.51 48.996 L 49.51 45.496 L 52.01 45.496 L 52.01 43.496 L 53.01 42.496 M 83.01 14.496 L 84.01 15.496 L 84.01 17.496 L 86.51 17.496 L 86.51 20.996 L 80.01 20.996 L 77.51 18.496 L 75.01 20.996 L 68.51 20.996 L 68.51 17.496 L 71.01 17.496 L 71.01 15.496 L 72.01 14.496 M 77.01 74.496 L 78.01 75.496 L 78.01 77.496 L 80.51 77.496 L 80.51 80.996 L 74.01 80.996 L 71.51 78.496 L 69.01 80.996 L 62.51 80.996 L 62.51 77.496 L 65.01 77.496 L 65.01 75.496 L 66.01 74.496 M 64.01 23.496 L 65.01 24.496 L 65.01 26.496 L 67.51 26.496 L 67.51 29.996 L 61.01 29.996 L 58.51 27.496 L 56.01 29.996 L 49.51 29.996 L 49.51 26.496 L 52.01 26.496 L 52.01 24.496 L 53.01 23.496 M 53.01 18.496 L 52.01 17.496 L 52.01 15.496 L 49.51 15.496 L 49.51 11.996 L 56.01 11.996 L 58.51 14.496 L 61.01 11.996 L 67.51 11.996 L 67.51 15.496 L 65.01 15.496 L 65.01 17.496 L 64.01 18.496 M 83.01 52.496 L 84.01 53.496 L 84.01 55.496 L 86.51 55.496 L 86.51 58.996 L 80.01 58.996 L 77.51 56.496 L 75.01 58.996 L 68.51 58.996 L 68.51 55.496 L 71.01 55.496 L 71.01 53.496 L 72.01 52.496 M 21.21 44.531 L 20.399 45.689 L 18.429 46.037 L 18.863 48.499 L 15.417 49.106 L 14.288 42.705 L 16.316 39.809 L 13.42 37.781 L 12.291 31.38 L 15.738 30.772 L 16.172 33.234 L 18.141 32.887 L 19.3 33.698 M 43.293 53.703 L 44.368 54.622 L 44.525 56.615 L 47.018 56.419 L 47.292 59.908 L 40.812 60.418 L 38.124 58.122 L 35.828 60.811 L 29.348 61.321 L 29.073 57.832 L 31.565 57.635 L 31.409 55.642 L 32.327 54.566 M 24.509 63.242 L 23.698 64.401 L 21.729 64.748 L 22.163 67.21 L 18.716 67.818 L 17.587 61.416 L 19.615 58.52 L 16.719 56.492 L 15.59 50.091 L 19.037 49.483 L 19.471 51.945 L 21.441 51.598 L 22.599 52.409 M 27.809 81.953 L 26.997 83.112 L 25.028 83.459 L 25.462 85.921 L 22.015 86.529 L 20.886 80.128 L 22.914 77.232 L 20.018 75.204 L 18.89 68.802 L 22.336 68.195 L 22.77 70.657 L 24.74 70.309 L 25.899 71.121 M 41.802 34.762 L 42.878 35.68 L 43.035 37.674 L 45.527 37.478 L 45.802 40.967 L 39.322 41.477 L 36.633 39.181 L 34.337 41.869 L 27.857 42.379 L 27.582 38.89 L 30.075 38.694 L 29.918 36.7 L 30.836 35.625 M 89.51 36.996 L 90.51 35.996 L 92.51 35.996 L 92.51 33.496 L 96.01 33.496 L 96.01 39.996 L 93.51 42.496 L 96.01 44.996 L 96.01 51.496 L 92.51 51.496 L 92.51 48.996 L 90.51 48.996 L 89.51 47.996 M 83.01 33.496 L 84.01 34.496 L 84.01 36.496 L 86.51 36.496 L 86.51 39.996 L 80.01 39.996 L 77.51 37.496 L 75.01 39.996 L 68.51 39.996 L 68.51 36.496 L 71.01 36.496 L 71.01 34.496 L 72.01 33.496 M 102.01 54.496 L 103.01 55.496 L 103.01 57.496 L 105.51 57.496 L 105.51 60.996 L 99.01 60.996 L 96.51 58.496 L 94.01 60.996 L 87.51 60.996 L 87.51 57.496 L 90.01 57.496 L 90.01 55.496 L 91.01 54.496 M 100.451 78.761 L 101.179 79.973 L 100.695 81.913 L 103.121 82.518 L 102.274 85.914 L 95.968 84.342 L 94.147 81.311 L 91.116 83.132 L 84.809 81.56 L 85.656 78.164 L 88.082 78.768 L 88.565 76.828 L 89.778 76.099 M 89.51 17.996 L 90.51 16.996 L 92.51 16.996 L 92.51 14.496 L 96.01 14.496 L 96.01 20.996 L 93.51 23.496 L 96.01 25.996 L 96.01 32.496 L 92.51 32.496 L 92.51 29.996 L 90.51 29.996 L 89.51 28.996 M 30.444 30.64 L 29.369 29.722 L 29.212 27.728 L 26.719 27.924 L 26.445 24.435 L 32.925 23.925 L 35.613 26.221 L 37.909 23.533 L 44.389 23.023 L 44.664 26.512 L 42.172 26.708 L 42.329 28.702 L 41.41 29.777 M 111.196 84.196 L 112.562 83.83 L 114.294 84.83 L 115.544 82.665 L 118.575 84.415 L 115.325 90.044 L 111.91 90.959 L 112.825 94.374 L 109.575 100.003 L 106.544 98.253 L 107.794 96.088 L 106.062 95.088 L 105.696 93.722 M 51.838 69.759 L 51.838 62.159 L 52.538 62.159 L 52.538 63.759 L 59.038 63.759 L 59.038 62.159 L 59.738 62.159 L 59.738 69.759 L 51.838 69.759 Z M 32.232 106.497 L 32.232 109.497 L 30.232 109.497 L 30.232 111.997 L 26.232 111.997 L 26.232 109.497 L 24.232 109.497 L 24.232 106.497 L 25.232 106.497 L 25.232 105.497 L 31.232 105.497 L 31.232 106.497 L 32.232 106.497 Z M 60.071 88.005 L 60.071 80.005 L 56.571 80.005 L 56.571 88.005 L 60.071 88.005 Z M 5.364 26.612 m -2.7 0 a 2.7 2.7 0 0 1 5.4 0 a 2.7 2.7 0 0 1 -5.4 0 z M 94.509 5.931 m -2.7 0 a 2.7 2.7 0 0 1 5.4 0 a 2.7 2.7 0 0 1 -5.4 0 z M 112.899 73.489 m -2.7 0 a 2.7 2.7 0 0 1 5.4 0 a 2.7 2.7 0 0 1 -5.4 0 z M 96.268 99.794 m -2.7 0 a 2.7 2.7 0 0 1 5.4 0 a 2.7 2.7 0 0 1 -5.4 0 z M 23.391 92.714 m -2.7 0 a 2.7 2.7 0 0 1 5.4 0 a 2.7 2.7 0 0 1 -5.4 0 z M 8.955 70.047 27.666 66.747 M 5.655 51.335 24.367 48.036 M 28.143 52.388 47.085 50.897 M 26.652 33.446 45.594 31.956 M 49.01 39.996 68.01 39.996 M 49.01 20.996 68.01 20.996 M 68.01 49.996 87.01 49.996 M 68.01 30.996 87.01 30.996 M 87.01 51.996 106.01 51.996 M 87.01 32.996 106.01 32.996" vector-effect="non-scaling-stroke"/></g></svg>