<svg width="128.329mm" height="111.997mm" viewBox="0 0 128.329 111.997" xmlns="http://www.w3.org/2000/svg"><g id="svgGroup" stroke-linecap="round" fill-rule="evenodd" font-size="9pt" stroke="#000" stroke-width="0.25mm" fill="none" style="stroke:#000;stroke-width:0.25mm;fill:none"><rect width="100%" height="100%" fill="#e6e6e6"/><path d="M 103.935 109.642 L 17.246 109.642 A 3 3 0 0 1 14.291 107.164 L 0.046 26.448 A 3 3 0 0 1 1.684 23.231 L 48.644 0.304 A 3 3 0 0 1 49.96 0 L 104.084 0 A 3 3 0 0 1 106.995 2.274 L 128.239 87.481 A 3 3 0 0 1 127.927 89.707 L 119.093 105.011 A 3 3 0 0 1 117.221 106.422 L 104.66 109.553 A 3 3 0 0 1 103.935 109.642 Z M 55.333 109.448 L 23.973 109.448 A 2 2 0 0 1 22.032 107.932 L 1.605 26.003 A 2 2 0 0 1 3.062 23.578 L 96.21 0.354 A 2 2 0 0 1 98.634 1.811 L 121.017 91.582 A 2 2 0 0 1 120.872 92.946 L 118.871 97.032 A 2 2 0 0 1 117.559 98.092 L 95.124 103.686 A 2 2 0 0 1 92.641 101.745 L 92.641 96.425 A 2 2 0 0 0 91.114 94.482 L 88.485 93.841 A 2 2 0 0 0 88.011 93.784 L 59.333 93.784 A 2 2 0 0 0 57.333 95.784 L 57.333 107.448 A 2 2 0 0 1 55.333 109.448 Z M 31.66 85.945 L 29.195 71.966 L 49.221 70.389 L 44.654 12.369 L 24.517 13.954 L 28.991 70.806 L 21.554 28.629 L 1.661 32.137 L 11.767 89.453 L 31.66 85.945 Z M 48.41 59.596 L 67.41 59.596 L 67.41 69.596 L 86.41 69.596 L 86.41 71.596 L 106.61 71.596 L 106.61 13.396 L 87.61 13.396 L 87.61 11.396 L 68.61 11.396 L 68.61 1.396 L 48.41 1.396 L 48.41 59.596 Z M 61.41 91.596 L 81.248 91.596 L 100.777 96.465 L 100.837 96.228 L 118.205 106.256 L 128.305 88.762 L 110.811 78.662 L 100.964 95.717 L 105.664 76.865 L 86.064 71.979 L 81.61 89.844 L 81.61 71.396 L 61.41 71.396 L 61.41 91.596 Z M 68.01 58.996 L 49.01 58.996 L 49.01 1.996 L 68.01 1.996 L 68.01 68.996 L 87.01 68.996 M 68.01 11.996 L 87.01 11.996 L 87.01 70.996 L 106.01 70.996 L 106.01 13.996 L 87.01 13.996 M 29.634 71.329 L 48.575 69.838 L 44.103 13.014 L 25.162 14.505 L 29.634 71.329 Z M 30.965 85.459 L 21.067 29.325 L 2.356 32.624 L 12.254 88.758 L 30.965 85.459 Z M 40.997 109.586 L 35.917 109.586 L 35.917 76.566 L 53.697 76.566 L 53.697 109.586 L 48.617 109.586 L 48.617 111.11 L 40.997 111.11 L 40.997 109.586 Z M 59.317 109.69 L 89.317 109.69 L 89.317 95.69 L 59.317 95.69 L 59.317 109.69 Z M 62.01 90.996 L 81.01 90.996 L 81.01 71.996 L 62.01 71.996 L 62.01 90.996 Z M 81.905 91.142 L 100.34 95.738 L 104.937 77.302 L 86.501 72.706 L 81.905 91.142 Z M 111.03 79.482 L 101.53 95.936 L 117.985 105.436 L 127.485 88.982 L 111.03 79.482 Z M 83.965 89.079 L 99.49 92.949 L 100.457 89.068 L 84.933 85.198 L 83.965 89.079 Z M 104.446 95.887 L 112.446 82.031 L 115.91 84.031 L 107.91 97.887 L 104.446 95.887 Z M 30.933 68.719 L 46.884 67.464 L 46.57 63.476 L 30.619 64.731 L 30.933 68.719 Z M 29.442 49.778 L 45.393 48.522 L 45.079 44.535 L 29.129 45.79 L 29.442 49.778 Z M 21.644 46.993 L 18.866 31.236 L 14.927 31.93 L 17.705 47.687 L 21.644 46.993 Z M 50.51 18.496 L 66.51 18.496 L 66.51 14.496 L 50.51 14.496 L 50.51 18.496 Z M 69.51 66.496 L 85.51 66.496 L 85.51 62.496 L 69.51 62.496 L 69.51 66.496 Z M 69.51 47.496 L 85.51 47.496 L 85.51 43.496 L 69.51 43.496 L 69.51 47.496 Z M 69.51 28.496 L 85.51 28.496 L 85.51 24.496 L 69.51 24.496 L 69.51 28.496 Z M 88.51 68.496 L 104.51 68.496 L 104.51 64.496 L 88.51 64.496 L 88.51 68.496 Z M 88.51 49.496 L 104.51 49.496 L 104.51 45.496 L 88.51 45.496 L 88.51 49.496 Z M 63.51 88.496 L 79.51 88.496 L 79.51 84.496 L 63.51 84.496 L 63.51 88.496 Z M 89.51 31.496 L 89.51 15.496 L 93.51 15.496 L 93.51 31.496 L 89.51 31.496 Z M 27.952 30.836 L 43.902 29.581 L 43.589 25.593 L 27.638 26.849 L 27.952 30.836 Z M 24.943 65.704 L 22.165 49.947 L 18.226 50.642 L 21.004 66.399 L 24.943 65.704 Z M 50.51 56.496 L 66.51 56.496 L 66.51 52.496 L 50.51 52.496 L 50.51 56.496 Z M 50.51 37.496 L 66.51 37.496 L 66.51 33.496 L 50.51 33.496 L 50.51 37.496 Z M 28.243 84.415 L 25.464 68.659 L 21.525 69.353 L 24.304 85.11 L 28.243 84.415 Z M 91.01 68.496 L 90.01 67.496 L 90.01 65.496 L 87.51 65.496 L 87.51 61.996 L 94.01 61.996 L 96.51 64.496 L 99.01 61.996 L 105.51 61.996 L 105.51 65.496 L 103.01 65.496 L 103.01 67.496 L 102.01 68.496 M 53.01 18.496 L 52.01 17.496 L 52.01 15.496 L 49.51 15.496 L 49.51 11.996 L 56.01 11.996 L 58.51 14.496 L 61.01 11.996 L 67.51 11.996 L 67.51 15.496 L 65.01 15.496 L 65.01 17.496 L 64.01 18.496 M 53.01 56.496 L 52.01 55.496 L 52.01 53.496 L 49.51 53.496 L 49.51 49.996 L 56.01 49.996 L 58.51 52.496 L 61.01 49.996 L 67.51 49.996 L 67.51 53.496 L 65.01 53.496 L 65.01 55.496 L 64.01 56.496 M 21.21 44.531 L 20.399 45.689 L 18.429 46.037 L 18.863 48.499 L 15.417 49.106 L 14.288 42.705 L 16.316 39.809 L 13.42 37.781 L 12.291 31.38 L 15.738 30.772 L 16.172 33.234 L 18.141 32.887 L 19.3 33.698 M 86.391 89.684 L 85.662 88.471 L 86.146 86.531 L 83.72 85.926 L 84.567 82.53 L 90.874 84.102 L 92.695 87.133 L 95.726 85.312 L 102.033 86.884 L 101.186 90.281 L 98.76 89.676 L 98.276 91.616 L 97.064 92.345 M 53.01 37.496 L 52.01 36.496 L 52.01 34.496 L 49.51 34.496 L 49.51 30.996 L 56.01 30.996 L 58.51 33.496 L 61.01 30.996 L 67.51 30.996 L 67.51 34.496 L 65.01 34.496 L 65.01 36.496 L 64.01 37.496 M 91.01 49.496 L 90.01 48.496 L 90.01 46.496 L 87.51 46.496 L 87.51 42.996 L 94.01 42.996 L 96.51 45.496 L 99.01 42.996 L 105.51 42.996 L 105.51 46.496 L 103.01 46.496 L 103.01 48.496 L 102.01 49.496 M 24.509 63.242 L 23.698 64.401 L 21.729 64.748 L 22.163 67.21 L 18.716 67.818 L 17.587 61.416 L 19.615 58.52 L 16.719 56.492 L 15.59 50.091 L 19.037 49.483 L 19.471 51.945 L 21.441 51.598 L 22.599 52.409 M 27.809 81.953 L 26.997 83.112 L 25.028 83.459 L 25.462 85.921 L 22.015 86.529 L 20.886 80.128 L 22.914 77.232 L 20.018 75.204 L 18.89 68.802 L 22.336 68.195 L 22.77 70.657 L 24.74 70.309 L 25.899 71.121 M 72.01 66.496 L 71.01 65.496 L 71.01 63.496 L 68.51 63.496 L 68.51 59.996 L 75.01 59.996 L 77.51 62.496 L 80.01 59.996 L 86.51 59.996 L 86.51 63.496 L 84.01 63.496 L 84.01 65.496 L 83.01 66.496 M 66.01 88.496 L 65.01 87.496 L 65.01 85.496 L 62.51 85.496 L 62.51 81.996 L 69.01 81.996 L 71.51 84.496 L 74.01 81.996 L 80.51 81.996 L 80.51 85.496 L 78.01 85.496 L 78.01 87.496 L 77.01 88.496 M 72.01 28.496 L 71.01 27.496 L 71.01 25.496 L 68.51 25.496 L 68.51 21.996 L 75.01 21.996 L 77.51 24.496 L 80.01 21.996 L 86.51 21.996 L 86.51 25.496 L 84.01 25.496 L 84.01 27.496 L 83.01 28.496 M 89.51 17.996 L 90.51 16.996 L 92.51 16.996 L 92.51 14.496 L 96.01 14.496 L 96.01 20.996 L 93.51 23.496 L 96.01 25.996 L 96.01 32.496 L 92.51 32.496 L 92.51 29.996 L 90.51 29.996 L 89.51 28.996 M 72.01 47.496 L 71.01 46.496 L 71.01 44.496 L 68.51 44.496 L 68.51 40.996 L 75.01 40.996 L 77.51 43.496 L 80.01 40.996 L 86.51 40.996 L 86.51 44.496 L 84.01 44.496 L 84.01 46.496 L 83.01 47.496 M 31.935 49.582 L 30.859 48.663 L 30.702 46.669 L 28.21 46.865 L 27.935 43.376 L 34.415 42.866 L 37.104 45.162 L 39.4 42.474 L 45.88 41.964 L 46.155 45.453 L 43.662 45.649 L 43.819 47.643 L 42.901 48.719 M 30.444 30.64 L 29.369 29.722 L 29.212 27.728 L 26.719 27.924 L 26.445 24.435 L 32.925 23.925 L 35.613 26.221 L 37.909 23.533 L 44.389 23.023 L 44.664 26.512 L 42.172 26.708 L 42.329 28.702 L 41.41 29.777 M 111.196 84.196 L 112.562 83.83 L 114.294 84.83 L 115.544 82.665 L 118.575 84.415 L 115.325 90.044 L 111.91 90.959 L 112.825 94.374 L 109.575 100.003 L 106.544 98.253 L 107.794 96.088 L 106.062 95.088 L 105.696 93.722 M 33.425 68.523 L 32.35 67.605 L 32.193 65.611 L 29.701 65.807 L 29.426 62.318 L 35.906 61.808 L 38.595 64.104 L 40.891 61.415 L 47.371 60.905 L 47.645 64.395 L 45.153 64.591 L 45.31 66.585 L 44.392 67.66 M 51.838 69.759 L 51.838 62.159 L 52.538 62.159 L 52.538 63.759 L 59.038 63.759 L 59.038 62.159 L 59.738 62.159 L 59.738 69.759 L 51.838 69.759 Z M 32.232 106.497 L 32.232 109.497 L 30.232 109.497 L 30.232 111.997 L 26.232 111.997 L 26.232 109.497 L 24.232 109.497 L 24.232 106.497 L 25.232 106.497 L 25.232 105.497 L 31.232 105.497 L 31.232 106.497 L 32.232 106.497 Z M 60.071 88.005 L 60.071 80.005 L 56.571 80.005 L 56.571 88.005 L 60.071 88.005 Z M 5.364 26.612 m -2.7 0 a 2.7 2.7 0 0 1 5.4 0 a 2.7 2.7 0 0 1 -5.4 0 z M 94.509 5.931 m -2.7 0 a 2.7 2.7 0 0 1 5.4 0 a 2.7 2.7 0 0 1 -5.4 0 z M 112.899 73.489 m -2.7 0 a 2.7 2.7 0 0 1 5.4 0 a 2.7 2.7 0 0 1 -5.4 0 z M 96.268 99.794 m -2.7 0 a 2.7 2.7 0 0 1 5.4 0 a 2.7 2.7 0 0 1 -5.4 0 z M 23.391 92.714 m -2.7 0 a 2.7 2.7 0 0 1 5.4 0 a 2.7 2.7 0 0 1 -5.4 0 z M 8.955 70.047 27.666 66.747 M 5.655 51.335 24.367 48.036 M 28.143 52.388 47.085 50.897 M 26.652 33.446 45.594 31.956 M 49.01 39.996 68.01 39.996 M 49.01 20.996 68.01 20.996 M 68.01 49.996 87.01 49.996 M 68.01 30.996 87.01 30.996 M 87.01 51.996 106.01 51.996 M 87.01 32.996 106.01 32.996" vector-effect="non-scaling-stroke"/></g></svg>